<mxfile host="app.diagrams.net" modified="2021-10-27T11:34:59.618Z" agent="5.0 (Windows NT 10.0; Win64; x64) AppleWebKit/537.36 (KHTML, like Gecko) Chrome/95.0.4638.54 Safari/537.36" etag="qdCLVdsroAzwbzvbiP1b" version="15.5.9" type="github">
  <diagram id="C5RBs43oDa-KdzZeNtuy" name="Page-1">
    <mxGraphModel dx="1038" dy="539" grid="1" gridSize="10" guides="1" tooltips="1" connect="1" arrows="1" fold="1" page="1" pageScale="1" pageWidth="827" pageHeight="1169" math="0" shadow="0">
      <root>
        <mxCell id="WIyWlLk6GJQsqaUBKTNV-0" />
        <mxCell id="WIyWlLk6GJQsqaUBKTNV-1" parent="WIyWlLk6GJQsqaUBKTNV-0" />
        <mxCell id="4ofv3-9GoqpGcoyupGX1-5" style="rounded=0;orthogonalLoop=1;jettySize=auto;html=1;exitX=1;exitY=0.5;exitDx=0;exitDy=0;entryX=0;entryY=0;entryDx=0;entryDy=0;" edge="1" parent="WIyWlLk6GJQsqaUBKTNV-1" source="4ofv3-9GoqpGcoyupGX1-0" target="4ofv3-9GoqpGcoyupGX1-2">
          <mxGeometry relative="1" as="geometry" />
        </mxCell>
        <mxCell id="4ofv3-9GoqpGcoyupGX1-0" value="教师" style="rounded=0;whiteSpace=wrap;html=1;" vertex="1" parent="WIyWlLk6GJQsqaUBKTNV-1">
          <mxGeometry x="130" y="190" width="90" height="40" as="geometry" />
        </mxCell>
        <mxCell id="4ofv3-9GoqpGcoyupGX1-9" style="edgeStyle=none;rounded=0;orthogonalLoop=1;jettySize=auto;html=1;exitX=1;exitY=0;exitDx=0;exitDy=0;entryX=0;entryY=0.5;entryDx=0;entryDy=0;" edge="1" parent="WIyWlLk6GJQsqaUBKTNV-1" source="4ofv3-9GoqpGcoyupGX1-2" target="4ofv3-9GoqpGcoyupGX1-3">
          <mxGeometry relative="1" as="geometry" />
        </mxCell>
        <mxCell id="4ofv3-9GoqpGcoyupGX1-11" style="edgeStyle=none;rounded=0;orthogonalLoop=1;jettySize=auto;html=1;exitX=1;exitY=0.5;exitDx=0;exitDy=0;entryX=0;entryY=0.5;entryDx=0;entryDy=0;" edge="1" parent="WIyWlLk6GJQsqaUBKTNV-1" source="4ofv3-9GoqpGcoyupGX1-2" target="4ofv3-9GoqpGcoyupGX1-4">
          <mxGeometry relative="1" as="geometry" />
        </mxCell>
        <mxCell id="4ofv3-9GoqpGcoyupGX1-32" style="edgeStyle=none;rounded=0;orthogonalLoop=1;jettySize=auto;html=1;exitX=0;exitY=1;exitDx=0;exitDy=0;entryX=0;entryY=0;entryDx=0;entryDy=0;" edge="1" parent="WIyWlLk6GJQsqaUBKTNV-1" source="4ofv3-9GoqpGcoyupGX1-2" target="4ofv3-9GoqpGcoyupGX1-28">
          <mxGeometry relative="1" as="geometry" />
        </mxCell>
        <mxCell id="4ofv3-9GoqpGcoyupGX1-34" style="edgeStyle=none;rounded=0;orthogonalLoop=1;jettySize=auto;html=1;exitX=1;exitY=1;exitDx=0;exitDy=0;entryX=0.5;entryY=0;entryDx=0;entryDy=0;" edge="1" parent="WIyWlLk6GJQsqaUBKTNV-1" source="4ofv3-9GoqpGcoyupGX1-2" target="4ofv3-9GoqpGcoyupGX1-30">
          <mxGeometry relative="1" as="geometry" />
        </mxCell>
        <mxCell id="4ofv3-9GoqpGcoyupGX1-2" value="选修课安排系统" style="ellipse;whiteSpace=wrap;html=1;aspect=fixed;" vertex="1" parent="WIyWlLk6GJQsqaUBKTNV-1">
          <mxGeometry x="344" y="200" width="110" height="110" as="geometry" />
        </mxCell>
        <mxCell id="4ofv3-9GoqpGcoyupGX1-3" value="教师" style="rounded=0;whiteSpace=wrap;html=1;" vertex="1" parent="WIyWlLk6GJQsqaUBKTNV-1">
          <mxGeometry x="580" y="200" width="90" height="40" as="geometry" />
        </mxCell>
        <mxCell id="4ofv3-9GoqpGcoyupGX1-4" value="学生" style="rounded=0;whiteSpace=wrap;html=1;" vertex="1" parent="WIyWlLk6GJQsqaUBKTNV-1">
          <mxGeometry x="580" y="270" width="90" height="40" as="geometry" />
        </mxCell>
        <mxCell id="4ofv3-9GoqpGcoyupGX1-6" value="计划开设课程信息" style="text;html=1;align=center;verticalAlign=middle;resizable=0;points=[];autosize=1;strokeColor=none;fillColor=none;" vertex="1" parent="WIyWlLk6GJQsqaUBKTNV-1">
          <mxGeometry x="225" y="190" width="110" height="20" as="geometry" />
        </mxCell>
        <mxCell id="4ofv3-9GoqpGcoyupGX1-10" value="选课名单" style="text;html=1;align=center;verticalAlign=middle;resizable=0;points=[];autosize=1;strokeColor=none;fillColor=none;" vertex="1" parent="WIyWlLk6GJQsqaUBKTNV-1">
          <mxGeometry x="480" y="200" width="60" height="20" as="geometry" />
        </mxCell>
        <mxCell id="4ofv3-9GoqpGcoyupGX1-12" value="课程信息" style="text;html=1;align=center;verticalAlign=middle;resizable=0;points=[];autosize=1;strokeColor=none;fillColor=none;" vertex="1" parent="WIyWlLk6GJQsqaUBKTNV-1">
          <mxGeometry x="490" y="260" width="60" height="20" as="geometry" />
        </mxCell>
        <mxCell id="4ofv3-9GoqpGcoyupGX1-14" style="edgeStyle=none;rounded=0;orthogonalLoop=1;jettySize=auto;html=1;exitX=1;exitY=0.5;exitDx=0;exitDy=0;entryX=0;entryY=1;entryDx=0;entryDy=0;" edge="1" parent="WIyWlLk6GJQsqaUBKTNV-1" source="4ofv3-9GoqpGcoyupGX1-13" target="4ofv3-9GoqpGcoyupGX1-2">
          <mxGeometry relative="1" as="geometry" />
        </mxCell>
        <mxCell id="4ofv3-9GoqpGcoyupGX1-13" value="管理员" style="rounded=0;whiteSpace=wrap;html=1;" vertex="1" parent="WIyWlLk6GJQsqaUBKTNV-1">
          <mxGeometry x="120" y="250" width="90" height="40" as="geometry" />
        </mxCell>
        <mxCell id="4ofv3-9GoqpGcoyupGX1-15" value="教室信息" style="text;html=1;align=center;verticalAlign=middle;resizable=0;points=[];autosize=1;strokeColor=none;fillColor=none;" vertex="1" parent="WIyWlLk6GJQsqaUBKTNV-1">
          <mxGeometry x="255" y="260" width="60" height="20" as="geometry" />
        </mxCell>
        <mxCell id="4ofv3-9GoqpGcoyupGX1-20" style="edgeStyle=none;rounded=0;orthogonalLoop=1;jettySize=auto;html=1;exitX=0.75;exitY=0;exitDx=0;exitDy=0;entryX=0;entryY=1;entryDx=0;entryDy=0;" edge="1" parent="WIyWlLk6GJQsqaUBKTNV-1" source="4ofv3-9GoqpGcoyupGX1-19" target="4ofv3-9GoqpGcoyupGX1-2">
          <mxGeometry relative="1" as="geometry" />
        </mxCell>
        <mxCell id="4ofv3-9GoqpGcoyupGX1-19" value="学生" style="rounded=0;whiteSpace=wrap;html=1;" vertex="1" parent="WIyWlLk6GJQsqaUBKTNV-1">
          <mxGeometry x="100" y="330" width="90" height="40" as="geometry" />
        </mxCell>
        <mxCell id="4ofv3-9GoqpGcoyupGX1-21" value="选课请求" style="text;html=1;align=center;verticalAlign=middle;resizable=0;points=[];autosize=1;strokeColor=none;fillColor=none;" vertex="1" parent="WIyWlLk6GJQsqaUBKTNV-1">
          <mxGeometry x="220" y="300" width="60" height="20" as="geometry" />
        </mxCell>
        <mxCell id="4ofv3-9GoqpGcoyupGX1-23" style="edgeStyle=none;rounded=0;orthogonalLoop=1;jettySize=auto;html=1;exitX=1;exitY=0.5;exitDx=0;exitDy=0;" edge="1" parent="WIyWlLk6GJQsqaUBKTNV-1" source="4ofv3-9GoqpGcoyupGX1-22" target="4ofv3-9GoqpGcoyupGX1-2">
          <mxGeometry relative="1" as="geometry" />
        </mxCell>
        <mxCell id="4ofv3-9GoqpGcoyupGX1-22" value="教务处" style="rounded=0;whiteSpace=wrap;html=1;" vertex="1" parent="WIyWlLk6GJQsqaUBKTNV-1">
          <mxGeometry x="160" y="100" width="90" height="40" as="geometry" />
        </mxCell>
        <mxCell id="4ofv3-9GoqpGcoyupGX1-24" value="删除课程" style="text;html=1;align=center;verticalAlign=middle;resizable=0;points=[];autosize=1;strokeColor=none;fillColor=none;" vertex="1" parent="WIyWlLk6GJQsqaUBKTNV-1">
          <mxGeometry x="260" y="140" width="60" height="20" as="geometry" />
        </mxCell>
        <mxCell id="4ofv3-9GoqpGcoyupGX1-26" style="edgeStyle=none;rounded=0;orthogonalLoop=1;jettySize=auto;html=1;exitX=1;exitY=0.5;exitDx=0;exitDy=0;entryX=0;entryY=0;entryDx=0;entryDy=0;" edge="1" parent="WIyWlLk6GJQsqaUBKTNV-1" source="4ofv3-9GoqpGcoyupGX1-25" target="4ofv3-9GoqpGcoyupGX1-2">
          <mxGeometry relative="1" as="geometry" />
        </mxCell>
        <mxCell id="4ofv3-9GoqpGcoyupGX1-27" value="课程对应教室信息" style="edgeLabel;html=1;align=center;verticalAlign=middle;resizable=0;points=[];" vertex="1" connectable="0" parent="4ofv3-9GoqpGcoyupGX1-26">
          <mxGeometry x="-0.1172" y="-1" relative="1" as="geometry">
            <mxPoint as="offset" />
          </mxGeometry>
        </mxCell>
        <mxCell id="4ofv3-9GoqpGcoyupGX1-25" value="教务处" style="rounded=0;whiteSpace=wrap;html=1;" vertex="1" parent="WIyWlLk6GJQsqaUBKTNV-1">
          <mxGeometry x="200" y="30" width="90" height="40" as="geometry" />
        </mxCell>
        <mxCell id="4ofv3-9GoqpGcoyupGX1-29" style="edgeStyle=none;rounded=0;orthogonalLoop=1;jettySize=auto;html=1;exitX=0.5;exitY=0;exitDx=0;exitDy=0;entryX=0.5;entryY=1;entryDx=0;entryDy=0;" edge="1" parent="WIyWlLk6GJQsqaUBKTNV-1" source="4ofv3-9GoqpGcoyupGX1-28" target="4ofv3-9GoqpGcoyupGX1-2">
          <mxGeometry relative="1" as="geometry" />
        </mxCell>
        <mxCell id="4ofv3-9GoqpGcoyupGX1-28" value="教室信息" style="html=1;dashed=0;whitespace=wrap;shape=partialRectangle;right=0;left=0;" vertex="1" parent="WIyWlLk6GJQsqaUBKTNV-1">
          <mxGeometry x="290" y="430" width="100" height="30" as="geometry" />
        </mxCell>
        <mxCell id="4ofv3-9GoqpGcoyupGX1-35" style="edgeStyle=none;rounded=0;orthogonalLoop=1;jettySize=auto;html=1;exitX=0;exitY=0;exitDx=0;exitDy=0;entryX=0.5;entryY=1;entryDx=0;entryDy=0;" edge="1" parent="WIyWlLk6GJQsqaUBKTNV-1" source="4ofv3-9GoqpGcoyupGX1-30" target="4ofv3-9GoqpGcoyupGX1-2">
          <mxGeometry relative="1" as="geometry" />
        </mxCell>
        <mxCell id="4ofv3-9GoqpGcoyupGX1-30" value="课程信息" style="html=1;dashed=0;whitespace=wrap;shape=partialRectangle;right=0;left=0;" vertex="1" parent="WIyWlLk6GJQsqaUBKTNV-1">
          <mxGeometry x="430" y="430" width="100" height="30" as="geometry" />
        </mxCell>
      </root>
    </mxGraphModel>
  </diagram>
</mxfile>
